<?xml version="1.0" encoding="UTF-8"?>
<svg version="1.1" xmlns="http://www.w3.org/2000/svg" width="512" height="512">
<path d="M0 0 C168.96 0 337.92 0 512 0 C512 168.96 512 337.92 512 512 C343.04 512 174.08 512 0 512 C0 343.04 0 174.08 0 0 Z " fill="#515751" transform="translate(0,0)"/>
<path d="M0 0 C0.99 0.66 1.98 1.32 3 2 C5.73589818 -3.60207722 7.06119891 -9.21361638 8.3515625 -15.3046875 C9 -18 9 -18 10 -19 C11.4887186 -19.08669432 12.981445 -19.10703494 14.47265625 -19.09765625 C15.37177734 -19.09443359 16.27089844 -19.09121094 17.19726562 -19.08789062 C18.61555664 -19.07532227 18.61555664 -19.07532227 20.0625 -19.0625 C21.4865918 -19.05573242 21.4865918 -19.05573242 22.93945312 -19.04882812 C25.29303369 -19.03700109 27.64647581 -19.01968094 30 -19 C31.45609471 -10.09396972 32.58086571 -1.19773227 33.47265625 7.78125 C33.60063095 9.03836792 33.72860565 10.29548584 33.86045837 11.59069824 C34.19606643 14.88950395 34.52910022 18.18855348 34.8604126 21.48779297 C35.32935776 26.15713283 35.80049541 30.82624245 36.2752533 35.49499512 C36.52696615 37.97107124 36.77637969 40.44738245 37.02320862 42.9239502 C37.13680222 44.04281616 37.25039581 45.16168213 37.36743164 46.31445312 C37.46576797 47.29450317 37.56410431 48.27455322 37.66542053 49.28430176 C37.96540635 51.99982092 37.96540635 51.99982092 38.53123474 54.64929199 C39.14144214 57.70928716 39.13205274 60.63268952 39.125 63.75 C39.12757813 64.89984375 39.13015625 66.0496875 39.1328125 67.234375 C39 70 39 70 38 71 C30.80658193 72.33717541 23.31949508 73.7037976 16 73 C13.97483627 69.9622544 13.31289544 67.8055031 12.375 64.3125 C5.94231019 42.97306037 -6.63707469 24.22007363 -26.09765625 13.00292969 C-41.38825949 4.94161063 -61.01752986 3.34835327 -77.8125 7.125 C-91.03011642 11.27855347 -100.93090051 18.74467492 -107.5234375 30.90625 C-113.07046439 42.52859205 -113.86102926 55.50615977 -110.375 67.875 C-104.22047524 85.22346875 -91.54728929 94.37456639 -75.52294922 102.21142578 C-64.26424015 107.49569784 -52.73303681 111.89512405 -41 116 C-8.76101813 127.27900845 24.88017624 141.24652044 41.21484375 173.390625 C50.05545055 193.54053634 49.59179824 219.7096626 41.84667969 240.18139648 C40.64448768 243.16105109 39.33908965 246.07899912 38 249 C37.67128906 249.76570313 37.34257812 250.53140625 37.00390625 251.3203125 C26.6823246 273.98191843 6.97047043 287.43881606 -15.29296875 296.3125 C-27.48513353 300.69330425 -39.96901338 301.38500645 -52.8125 301.3125 C-53.51821136 301.31001251 -54.22392273 301.30752502 -54.95101929 301.30496216 C-84.67465511 301.14291971 -108.57928135 290.91377236 -132 273 C-132.11214844 273.78632813 -132.22429687 274.57265625 -132.33984375 275.3828125 C-133.17379634 279.95228054 -134.35746216 284.39165808 -135.5625 288.875 C-136.366875 291.88625 -137.17125 294.8975 -138 298 C-144.6 298 -151.2 298 -158 298 C-158.23783203 295.29296875 -158.23783203 295.29296875 -158.48046875 292.53125 C-158.65258938 290.57579294 -158.82471546 288.62033635 -158.99691772 286.66488647 C-159.12415093 285.21960285 -159.25128689 283.77431067 -159.37832642 282.32901001 C-160.23069226 272.63468472 -161.09380302 262.94138205 -161.96928406 253.24911499 C-162.42834417 248.16665643 -162.88584944 243.08405821 -163.34341431 238.00146484 C-163.57273787 235.45956318 -163.80286031 232.91773346 -164.03378296 230.37597656 C-164.36175881 226.76515112 -164.68699818 223.15408819 -165.01171875 219.54296875 C-165.11158081 218.45159103 -165.21144287 217.36021332 -165.31433105 216.23576355 C-165.45010559 214.71756767 -165.45010559 214.71756767 -165.58862305 213.16870117 C-165.6683989 212.28752121 -165.74817474 211.40634125 -165.83036804 210.49845886 C-166.0006385 207.99059566 -166.02967754 205.51279802 -166 203 C-157.59071995 201.74421418 -149.51760792 200.71626591 -141 201 C-140.5153125 202.12535156 -140.030625 203.25070312 -139.53125 204.41015625 C-127.56640507 231.93895352 -113.66064646 255.966278 -84.38671875 268.1953125 C-79.36552494 269.88821909 -74.19312772 270.97701248 -69 272 C-68.06027344 272.185625 -67.12054688 272.37125 -66.15234375 272.5625 C-47.49972893 275.15121482 -26.74045695 272.53174928 -11.36328125 261.02734375 C-3.301616 254.11163422 0.74868068 244.23869343 3 234 C3.89516642 217.25005902 2.94716019 200.85977777 -8.15625 187.3828125 C-25.24118154 169.13299926 -51.45421812 161.95742537 -74.421875 154.15234375 C-95.20320846 147.07097172 -115.38008697 138.73396545 -132 124 C-133.05960938 123.06414062 -133.05960938 123.06414062 -134.140625 122.109375 C-147.51450608 109.55221948 -154.6855445 91.40694348 -155.30078125 73.23828125 C-155.32022643 71.26311269 -155.32375397 69.28773222 -155.3125 67.3125 C-155.30686035 66.26594238 -155.3012207 65.21938477 -155.29541016 64.14111328 C-154.94179013 41.36588286 -147.23361381 21.44412035 -130.84082031 5.30175781 C-95.5756012 -27.77714889 -38.36347721 -26.23249004 0 0 Z " fill="#FDFDFD" transform="translate(316,115)"/>
<path d="M0 0 C0.33 0 0.66 0 1 0 C1 13.53 1 27.06 1 41 C-12.53 41 -26.06 41 -40 41 C-36.77794772 39.38897386 -33.66489916 38.09649079 -30.3125 36.8125 C-17.71232801 31.5611525 -8.22889841 22.19948407 -2.96484375 9.59765625 C-1.78548854 6.42246916 -0.80417774 3.28981803 0 0 Z " fill="#000000" transform="translate(511,471)"/>
<path d="M0 0 C1.61102614 3.22205228 2.90350921 6.33510084 4.1875 9.6875 C9.4388475 22.28767199 18.80051593 31.77110159 31.40234375 37.03515625 C34.57753084 38.21451146 37.71018197 39.19582226 41 40 C41 40.33 41 40.66 41 41 C27.47 41 13.94 41 0 41 C0 27.47 0 13.94 0 0 Z " fill="#000000" transform="translate(0,471)"/>
<path d="M0 0 C13.53 0 27.06 0 41 0 C41 13.53 41 27.06 41 41 C39.38897386 37.77794772 38.09649079 34.66489916 36.8125 31.3125 C31.5611525 18.71232801 22.19948407 9.22889841 9.59765625 3.96484375 C6.42246916 2.78548854 3.28981803 1.80417774 0 1 C0 0.67 0 0.34 0 0 Z " fill="#000000" transform="translate(471,0)"/>
<path d="M0 0 C13.53 0 27.06 0 41 0 C37.77794772 1.61102614 34.66489916 2.90350921 31.3125 4.1875 C18.71232801 9.4388475 9.22889841 18.80051593 3.96484375 31.40234375 C2.78548854 34.57753084 1.80417774 37.71018197 1 41 C0.67 41 0.34 41 0 41 C0 27.47 0 13.94 0 0 Z " fill="#000000" transform="translate(0,0)"/>
</svg>
